<?xml version="1.0" encoding="UTF-8"?>
<svg id="Layer_1" data-name="Layer 1" xmlns="http://www.w3.org/2000/svg" viewBox="0 0 48 48">
  <path d="M41.28,6.53C37.08,2.18,31.37,0,24.14,0S11.07,2.18,6.81,6.53C2.55,10.89.42,16.71.42,24s2.12,13.03,6.35,17.42c.67.69,1.38,1.32,2.13,1.91l6.09-10.55c-2.46-3-2.4-7.31.2-12.93,3.52-7.63,8.28-10.06,14.28-7.29,6,2.77,7.24,7.97,3.72,15.6-3.08,6.67-7.06,9.42-11.94,8.29l-5.92,10.26c2.64.85,5.58,1.28,8.82,1.28,7.17,0,12.86-2.19,17.1-6.58,4.23-4.39,6.35-10.19,6.35-17.42s-2.1-13.11-6.3-17.47Z"/>
</svg>