<?xml version="1.0" encoding="UTF-8"?>
<svg id="Layer_1" data-name="Layer 1" xmlns="http://www.w3.org/2000/svg" viewBox="0 0 32 32">
  <defs>
    <style>
      .cls-1 {
        fill: #fff;
      }
    </style>
  </defs>
  <path class="cls-1" d="M27.52,4.36C24.72,1.45,20.91,0,16.09,0S7.38,1.45,4.54,4.36C1.7,7.26.28,11.14.28,16s1.41,8.69,4.23,11.61c.45.46.92.88,1.42,1.27l4.06-7.03c-1.64-2-1.6-4.87.13-8.62,2.35-5.08,5.52-6.7,9.52-4.86,4,1.85,4.83,5.31,2.48,10.4-2.05,4.45-4.71,6.28-7.96,5.53l-3.95,6.84c1.76.57,3.72.86,5.88.86,4.78,0,8.58-1.46,11.4-4.39,2.82-2.92,4.23-6.8,4.23-11.61s-1.4-8.74-4.2-11.64Z"/>
</svg>