<?xml version="1.0" encoding="UTF-8"?>
<svg id="Layer_1" data-name="Layer 1" xmlns="http://www.w3.org/2000/svg" viewBox="0 0 463.07 177.94">
  <path d="M109.02,122.73h-15.8v-18.19c0-3.26-.62-5.51-1.87-6.76-1.25-1.25-3.5-1.87-6.76-1.87h-14.97v26.82h-15.6V53.7h35.45c6.51,0,11.68,1.8,15.49,5.41,3.81,3.6,5.72,8.28,5.72,14.04,0,8.67-3.53,14.17-10.6,16.53,3.12.97,5.39,2.46,6.81,4.47,1.42,2.01,2.13,4.99,2.13,8.94v19.65ZM86.87,67.01h-17.26v16.84h17.05c6.17,0,9.25-2.84,9.25-8.53s-3.02-8.32-9.05-8.32Z"/>
  <path d="M130.22,65.45h-15.08v-12.58h15.08v12.58ZM130.22,122.73h-15.08v-51.15h15.08v51.15Z"/>
  <path d="M180.44,87.07h-14.14c-.42-4.43-3.19-6.65-8.32-6.65-2.43,0-4.26.4-5.51,1.2-1.25.8-1.87,1.82-1.87,3.07s.59,2.25,1.77,3.02c1.18.76,2.98,1.46,5.41,2.08,8.53,2.15,13.86,3.74,16.01,4.78,5.41,2.57,8.11,6.83,8.11,12.79,0,5.2-1.84,9.29-5.51,12.27-3.67,2.98-9.32,4.47-16.95,4.47s-14.02-1.59-18.35-4.78c-4.33-3.19-6.57-7.52-6.71-13h15.39c0,2.08.85,3.76,2.55,5.04,1.7,1.28,4.11,1.92,7.23,1.92,5.13,0,7.69-1.59,7.69-4.78,0-1.25-.5-2.2-1.51-2.86-1.01-.66-2.76-1.3-5.25-1.92-7.35-1.8-12.37-3.36-15.08-4.68-6.1-3.05-9.15-7.59-9.15-13.62,0-4.58,1.75-8.25,5.25-11.02,3.5-2.77,9.1-4.16,16.79-4.16s12.79,1.4,16.32,4.21,5.47,7.02,5.82,12.63Z"/>
  <path d="M389.05,122.73h-13.2c-.56-1.32-.9-2.77-1.04-4.37-2.98,3.81-8.08,5.72-15.28,5.72-11.3,0-16.95-4.92-16.95-14.76,0-3.19.55-5.87,1.66-8.06,1.11-2.18,2.86-3.9,5.25-5.15,2.39-1.25,4.8-2.18,7.23-2.81,2.43-.62,5.65-1.25,9.67-1.87,2.91-.42,4.89-.99,5.93-1.72s1.56-1.89,1.56-3.48c0-1.39-.71-2.48-2.13-3.27-1.42-.8-3.24-1.2-5.46-1.2-5.06,0-7.87,2.15-8.42,6.45h-13.62c.21-11.99,7.8-17.99,22.77-17.99,7.9,0,13.55,1.68,16.95,5.04,3.39,3.36,5.09,8.4,5.09,15.13v32.33ZM373.97,103.08l.1-4.37c-.97.9-3.47,1.77-7.49,2.6-3.53.76-5.96,1.68-7.28,2.76-1.32,1.08-1.98,2.55-1.98,4.42,0,3.26,1.84,4.89,5.51,4.89,3.47,0,6.17-1,8.11-3.01,1.94-2.01,2.95-4.44,3.01-7.28Z"/>
  <path d="M410.15,65.45h-15.08v-12.58h15.08v12.58ZM410.15,122.73h-15.08v-51.15h15.08v51.15Z"/>
  <path d="M329.27,71.58l-6.86,30.77-7.07-30.77h-15.28l-5.93,30.77-7.49-30.77h-15.15c1.04.81,2.04,1.69,2.97,2.66,5.58,5.79,8.41,13.5,8.41,22.92,0,4.13-.56,7.93-1.66,11.4l3.98,14.18h15.39l7.17-27.34,7.17,27.34h15.39l14.45-51.15h-15.49Z"/>
  <path d="M220.39,97.16c0-2.86.27-5.57.8-8.11h-8.21v13.93c0,5.34-2.22,8-6.65,8s-6.65-2.7-6.65-8.11v-20.69h23.76c.97-2.09,2.16-4.03,3.58-5.81v-4.8h-27.34v-13.83h-14.76v45.75c0,6.1,1.72,11.06,5.15,14.87,3.43,3.81,8.75,5.72,15.96,5.72s12.42-1.92,15.85-5.77c1.08-1.22,1.98-2.55,2.72-3.97-2.79-4.86-4.2-10.61-4.2-17.18Z"/>
  <path d="M271.02,77.56c-4.71-4.89-11.12-7.33-19.23-7.33s-14.66,2.44-19.44,7.33-7.17,11.42-7.17,19.6,2.37,14.63,7.12,19.55c.75.78,1.55,1.49,2.39,2.14l6.83-11.83c-2.76-3.37-2.69-8.2.22-14.51,3.95-8.56,9.29-11.28,16.03-8.17,6.73,3.11,8.12,8.94,4.17,17.5-3.45,7.48-7.92,10.57-13.4,9.3l-6.65,11.51c2.96.96,6.26,1.44,9.9,1.44,8.04,0,14.43-2.46,19.18-7.38,4.75-4.92,7.12-11.44,7.12-19.55s-2.36-14.71-7.07-19.6Z"/>
</svg>