<?xml version="1.0" encoding="UTF-8"?>
<svg id="Layer_1" data-name="Layer 1" xmlns="http://www.w3.org/2000/svg" viewBox="0 0 512 512">
  <defs>
    <style>
      .cls-1 {
        fill: #fff;
      }
    </style>
  </defs>
  <path class="cls-1" d="M404.03,106.38c-35.99-37.31-84.93-55.96-146.84-55.96s-111.92,18.65-148.43,55.96c-36.51,37.31-54.77,87.19-54.77,149.62s18.12,111.65,54.37,149.22c5.72,5.94,11.82,11.35,18.21,16.34l52.17-90.35c-21.05-25.7-20.57-62.58,1.67-110.74,30.17-65.33,70.95-86.14,122.36-62.4,51.4,23.73,62.02,68.27,31.86,133.61-26.37,57.11-60.48,80.73-102.28,71.03l-50.74,87.88c22.59,7.32,47.78,10.99,75.58,10.99,61.38,0,110.19-18.78,146.44-56.35,36.24-37.57,54.37-87.31,54.37-149.22s-18-112.31-53.98-149.62Z"/>
</svg>